<?xml version="1.0" encoding="UTF-8" standalone="no"?>
<!-- Created with Inkscape (http://www.inkscape.org/) -->

<svg
   xmlns:dc="http://purl.org/dc/elements/1.1/"
   xmlns:cc="http://creativecommons.org/ns#"
   xmlns:rdf="http://www.w3.org/1999/02/22-rdf-syntax-ns#"
   xmlns:svg="http://www.w3.org/2000/svg"
   xmlns="http://www.w3.org/2000/svg"
   xmlns:sodipodi="http://sodipodi.sourceforge.net/DTD/sodipodi-0.dtd"
   xmlns:inkscape="http://www.inkscape.org/namespaces/inkscape"
   width="210mm"
   height="297mm"
   viewBox="0 0 210 297"
   version="1.1"
   id="svg8"
   inkscape:version="0.92.1 r15371"
   sodipodi:docname="Info.svg">
  <defs
     id="defs2" />
  <sodipodi:namedview
     id="base"
     pagecolor="#ffffff"
     bordercolor="#666666"
     borderopacity="1.0"
     inkscape:pageopacity="0.0"
     inkscape:pageshadow="2"
     inkscape:zoom="0.175"
     inkscape:cx="6977.4514"
     inkscape:cy="-1430.1999"
     inkscape:document-units="mm"
     inkscape:current-layer="layer1"
     showgrid="false"
     inkscape:snap-bbox="true"
     inkscape:bbox-paths="true"
     inkscape:bbox-nodes="true"
     inkscape:snap-bbox-edge-midpoints="true"
     inkscape:snap-bbox-midpoints="true"
     inkscape:window-width="1920"
     inkscape:window-height="1017"
     inkscape:window-x="-8"
     inkscape:window-y="-8"
     inkscape:window-maximized="1" />
  <metadata
     id="metadata5">
    <rdf:RDF>
      <cc:Work
         rdf:about="">
        <dc:format>image/svg+xml</dc:format>
        <dc:type
           rdf:resource="http://purl.org/dc/dcmitype/StillImage" />
        <dc:title />
      </cc:Work>
    </rdf:RDF>
  </metadata>
  <g
     inkscape:label="Ebene 1"
     inkscape:groupmode="layer"
     id="layer1">
    <g
       style="fill:#646464;fill-opacity:1"
       transform="matrix(1.1429542,0,0,1.1429542,137.33551,354.938)"
       id="g4542"
       inkscape:export-xdpi="0.75999999"
       inkscape:export-ydpi="0.75999999">
      <path
         style="fill:#646464;fill-opacity:1"
         id="path4540"
         d="m 345.923,287.653 -55.22,-55.25 c -4.3,-4.293 -10.299,-6.652 -16.874,-6.652 -6.924,0 -13.606,2.695 -18.326,7.416 l -29.844,29.855 -8.077,-4.479 c -17.75,-9.849 -42.045,-23.329 -67.716,-49.035 -25.772,-25.737 -39.268,-50.099 -49.137,-67.912 l -4.414,-7.839 29.901,-29.897 c 9.893,-9.917 10.232,-25.707 0.75,-35.212 L 71.732,13.421 C 67.427,9.131 61.443,6.762 54.877,6.762 47.948,6.762 41.27,9.47 36.553,14.205 l -13.571,13.643 -1.279,2.083 c -5.041,6.476 -9.175,13.757 -12.274,21.683 -2.87,7.563 -4.66,14.745 -5.476,21.945 -7.116,59.195 20.173,113.527 94.218,187.559 87.77,87.748 161.109,94.576 181.495,94.576 3.482,0 5.603,-0.187 6.197,-0.252 7.529,-0.907 14.735,-2.721 22.014,-5.543 7.848,-3.062 15.102,-7.17 21.557,-12.214 l 3.087,-2.426 12.688,-12.454 c 9.877,-9.889 10.201,-25.663 0.714,-35.152 z"
         inkscape:connector-curvature="0" />
    </g>
    <path
       inkscape:connector-curvature="0"
       d="M 1123.4964,723.50831 V 489.46546 l -29.2553,-29.25536 h -29.2554 v -58.5107 h -58.5107 v -29.25537 h -29.25536 v -29.25534 c 0,-16.17089 -13.09908,-29.25536 -29.25537,-29.25536 -16.15625,0 -29.25533,13.08537 -29.25533,29.25536 v 29.25534 h -29.25538 v 29.25537 h -58.51069 v 58.5107 H 801.6875 l -29.25537,29.25536 v 234.04285 c -32.31253,0 -58.5107,26.16984 -58.5107,58.51074 h 468.08577 c 0,-32.3409 -26.1982,-58.51074 -58.5108,-58.51074 z M 889.45356,694.25297 h -58.51069 v -29.25536 h 58.51069 z m 0,-58.51072 h -58.51069 v -29.25534 h 58.51069 z m 0,-58.51071 h -58.51069 v -29.25537 h 58.51069 z m 0,-58.5107 h -58.51069 v -29.25538 h 58.51069 z m 87.76608,175.53213 h -58.5107 v -29.25536 h 58.5107 z m 0,-58.51072 h -58.5107 v -29.25534 h 58.5107 z m 0,-58.51071 h -58.5107 v -29.25537 h 58.5107 z m 0,-58.5107 h -58.5107 v -29.25538 h 58.5107 z m 87.76606,175.53213 h -58.5107 v -29.25536 h 58.5107 z m 0,-58.51072 h -58.5107 v -29.25534 h 58.5107 z m 0,-58.51071 h -58.5107 v -29.25537 h 58.5107 z m 0,-58.5107 h -58.5107 v -29.25538 h 58.5107 z"
       id="path2"
       style="stroke-width:0.91422987;fill:#646464;fill-opacity:1"
       inkscape:export-xdpi="0.64999998"
       inkscape:export-ydpi="0.64999998" />
    <path
       inkscape:connector-curvature="0"
       style="line-height:normal;font-family:'Bitstream Vera Sans';-inkscape-font-specification:'Bitstream Vera Sans';text-indent:0;text-align:start;text-transform:none;overflow:visible;stroke-width:19.69315529;enable-background:accumulate;fill:#646464;fill-opacity:1"
       d="m 1819.9864,393.63552 -85.5434,85.54187 -34.4615,-34.46297 c -17.7294,-17.72422 -43.207,-17.72422 -60.929,0 l -67.0771,67.08005 -19.6943,-19.69366 -27.6957,27.69348 196.929,196.93206 27.6957,-27.69348 -19.6944,-19.69366 67.0846,-67.07929 c 17.7219,-17.72421 17.7219,-43.20188 0,-60.9261 l -34.469,-34.46295 85.5434,-85.54187 z m -315.0954,145.85242 -27.6883,27.69348 19.687,19.6929 -67.0771,67.08004 c -17.722,17.72347 -17.722,43.20189 0,60.92537 l 34.4615,34.46295 -85.5434,85.5426 27.6957,27.69349 85.5434,-85.54261 34.4615,34.46296 c 17.7219,17.72421 43.1996,17.72421 60.929,0 l 67.0771,-67.07929 19.6943,19.69291 27.6959,-27.69349 z"
       overflow="visible"
       id="path2-1"
       inkscape:export-xdpi="0.64999998"
       inkscape:export-ydpi="0.64999998" />
    <g
       transform="matrix(0.59911665,0,0,0.59911665,2068.7202,364.83453)"
       id="g8"
       style="fill:#646464;fill-opacity:1"
       inkscape:export-xdpi="0.52115238"
       inkscape:export-ydpi="0.52115238">
      <g
         transform="matrix(1,0,0,-1,0,480)"
         id="g6"
         style="fill:#646464;fill-opacity:1">
        <path
           inkscape:connector-curvature="0"
           d="m 990,-20 c 0,129.6 -44.8,241.5 -134.4,335.6 -89.6,94 -198.6,144.9 -327,152.5 h -15.3 -1.9 -3.8 -2.9 -4.7 C 365.3,468.1 249.9,420.4 153.9,325.1 58,229.8 10,114.7 10,-20 c 0,-134.7 48,-249.8 143.9,-345.1 96,-95.3 211.3,-143 346.1,-143 h 4.8 4.8 1.9 1.9 15.3 c 128.4,7.6 237.4,58.5 327,152.5 89.6,94 134.3,206 134.3,335.6 z m -91.5,-156.3 c -33,8.9 -77.5,16.5 -133.5,22.9 6.4,43.2 9.5,87.7 9.5,133.5 0,35.6 -1.9,71.2 -5.7,106.8 63.6,7.6 109.3,15.9 137.3,24.8 L 894.7,144 C 917.5,91.9 929,37.2 929,-20 929,-74.7 918.8,-126.8 898.5,-176.3 Z M 284.6,-20 c 0,33 1.9,66.1 5.7,99.1 55.9,-3.8 115.7,-6.4 179.2,-7.6 v -211.6 c -62.3,0 -120.8,-1.9 -175.4,-5.7 -6.4,40.6 -9.5,82.6 -9.5,125.8 z m 244,423.3 c 38.1,-11.4 72.1,-41 102,-88.7 29.9,-47.7 51.8,-105.8 65.8,-174.5 -50.8,-3.8 -106.8,-6.4 -167.8,-7.6 z m -59.1,-1.9 V 132.5 c -59.7,1.3 -116.3,3.8 -169.7,7.6 15.3,68.6 38.1,126.5 68.6,173.5 30.5,47.1 64.2,76.3 101.1,87.8 z m 0,-602.5 v -240.2 c -34.3,10.2 -66.1,36.2 -95.3,78.2 -29.2,42 -51.5,94.1 -66.7,156.3 49.5,3.8 103.5,5.7 162,5.7 z m 59.1,-242.2 v 242.1 c 58.5,0 112.5,-1.9 162.1,-5.7 -15.3,-62.3 -37.2,-114.7 -65.8,-157.3 -28.6,-42.5 -60.7,-68.9 -96.3,-79.1 z m 0,303.2 V 71.5 c 64.8,1.3 124.6,3.8 179.2,7.6 3.8,-33 5.7,-66.1 5.7,-99.1 0,-43.2 -3.2,-85.8 -9.5,-127.7 -53.4,5 -111.8,7.6 -175.4,7.6 z m 354.6,308.9 c -28,-8.9 -69.3,-16.5 -123.9,-22.9 -17.8,92.8 -47.7,168.4 -89.6,226.9 96.6,-42 167.8,-110 213.5,-204 z m -530,213.5 C 301.1,321.3 263.6,242.5 240.7,145.9 188.6,151 146.6,157.3 114.9,165 165.7,270.4 245.1,342.9 353.2,382.3 Z M 92,107.7 c 33,-8.9 79.4,-16.5 139.2,-22.9 -5.1,-34.3 -7.6,-69.3 -7.6,-104.9 0,-44.5 3.8,-88.3 11.4,-131.6 -54.7,-6.4 -99.1,-14 -133.5,-22.9 C 81.2,-124.9 71,-73.4 71,-20 c 0,44.5 7,87.1 21,127.7 z m 36.2,-337.4 c 33,6.4 73.1,12.1 120.1,17.2 22.9,-85.2 57.8,-155.1 104.9,-209.7 -97.9,36.8 -172.9,101 -225,192.5 z m 541.5,-183.1 c 38.1,52.1 66.1,118.8 83.9,200.2 47,-5.1 86.4,-12.1 118.2,-21 -48.3,-81.3 -115.7,-141 -202.1,-179.2 z"
           id="path4"
           style="fill:#646464;fill-opacity:1" />
      </g>
    </g>
  </g>
</svg>
