<?xml version="1.0" encoding="UTF-8" standalone="no"?>
<!-- Created with Inkscape (http://www.inkscape.org/) -->

<svg
   xmlns:dc="http://purl.org/dc/elements/1.1/"
   xmlns:cc="http://creativecommons.org/ns#"
   xmlns:rdf="http://www.w3.org/1999/02/22-rdf-syntax-ns#"
   xmlns:svg="http://www.w3.org/2000/svg"
   xmlns="http://www.w3.org/2000/svg"
   xmlns:sodipodi="http://sodipodi.sourceforge.net/DTD/sodipodi-0.dtd"
   xmlns:inkscape="http://www.inkscape.org/namespaces/inkscape"
   width="210mm"
   height="297mm"
   viewBox="0 0 210 297"
   version="1.1"
   id="svg8"
   inkscape:version="0.92.1 r15371"
   sodipodi:docname="Info.svg">
  <defs
     id="defs2" />
  <sodipodi:namedview
     id="base"
     pagecolor="#ffffff"
     bordercolor="#666666"
     borderopacity="1.0"
     inkscape:pageopacity="0.0"
     inkscape:pageshadow="2"
     inkscape:zoom="0.175"
     inkscape:cx="3086.0229"
     inkscape:cy="-1087.3428"
     inkscape:document-units="mm"
     inkscape:current-layer="layer1"
     showgrid="false"
     inkscape:snap-bbox="true"
     inkscape:bbox-paths="true"
     inkscape:bbox-nodes="true"
     inkscape:snap-bbox-edge-midpoints="true"
     inkscape:snap-bbox-midpoints="true"
     inkscape:window-width="1920"
     inkscape:window-height="1017"
     inkscape:window-x="-8"
     inkscape:window-y="-8"
     inkscape:window-maximized="1" />
  <metadata
     id="metadata5">
    <rdf:RDF>
      <cc:Work
         rdf:about="">
        <dc:format>image/svg+xml</dc:format>
        <dc:type
           rdf:resource="http://purl.org/dc/dcmitype/StillImage" />
        <dc:title />
      </cc:Work>
    </rdf:RDF>
  </metadata>
  <g
     inkscape:label="Ebene 1"
     inkscape:groupmode="layer"
     id="layer1">
    <g
       style="fill:#646464;fill-opacity:1"
       transform="matrix(1.1429542,0,0,1.1429542,137.33551,354.938)"
       id="g4542"
       inkscape:export-xdpi="0.75999999"
       inkscape:export-ydpi="0.75999999">
      <path
         style="fill:#646464;fill-opacity:1"
         id="path4540"
         d="m 345.923,287.653 -55.22,-55.25 c -4.3,-4.293 -10.299,-6.652 -16.874,-6.652 -6.924,0 -13.606,2.695 -18.326,7.416 l -29.844,29.855 -8.077,-4.479 c -17.75,-9.849 -42.045,-23.329 -67.716,-49.035 -25.772,-25.737 -39.268,-50.099 -49.137,-67.912 l -4.414,-7.839 29.901,-29.897 c 9.893,-9.917 10.232,-25.707 0.75,-35.212 L 71.732,13.421 C 67.427,9.131 61.443,6.762 54.877,6.762 47.948,6.762 41.27,9.47 36.553,14.205 l -13.571,13.643 -1.279,2.083 c -5.041,6.476 -9.175,13.757 -12.274,21.683 -2.87,7.563 -4.66,14.745 -5.476,21.945 -7.116,59.195 20.173,113.527 94.218,187.559 87.77,87.748 161.109,94.576 181.495,94.576 3.482,0 5.603,-0.187 6.197,-0.252 7.529,-0.907 14.735,-2.721 22.014,-5.543 7.848,-3.062 15.102,-7.17 21.557,-12.214 l 3.087,-2.426 12.688,-12.454 c 9.877,-9.889 10.201,-25.663 0.714,-35.152 z"
         inkscape:connector-curvature="0" />
    </g>
    <path
       inkscape:connector-curvature="0"
       d="M 1123.4964,723.50831 V 489.46546 l -29.2553,-29.25536 h -29.2554 v -58.5107 h -58.5107 v -29.25537 h -29.25536 v -29.25534 c 0,-16.17089 -13.09908,-29.25536 -29.25537,-29.25536 -16.15625,0 -29.25533,13.08537 -29.25533,29.25536 v 29.25534 h -29.25538 v 29.25537 h -58.51069 v 58.5107 H 801.6875 l -29.25537,29.25536 v 234.04285 c -32.31253,0 -58.5107,26.16984 -58.5107,58.51074 h 468.08577 c 0,-32.3409 -26.1982,-58.51074 -58.5108,-58.51074 z M 889.45356,694.25297 h -58.51069 v -29.25536 h 58.51069 z m 0,-58.51072 h -58.51069 v -29.25534 h 58.51069 z m 0,-58.51071 h -58.51069 v -29.25537 h 58.51069 z m 0,-58.5107 h -58.51069 v -29.25538 h 58.51069 z m 87.76608,175.53213 h -58.5107 v -29.25536 h 58.5107 z m 0,-58.51072 h -58.5107 v -29.25534 h 58.5107 z m 0,-58.51071 h -58.5107 v -29.25537 h 58.5107 z m 0,-58.5107 h -58.5107 v -29.25538 h 58.5107 z m 87.76606,175.53213 h -58.5107 v -29.25536 h 58.5107 z m 0,-58.51072 h -58.5107 v -29.25534 h 58.5107 z m 0,-58.51071 h -58.5107 v -29.25537 h 58.5107 z m 0,-58.5107 h -58.5107 v -29.25538 h 58.5107 z"
       id="path2"
       style="stroke-width:0.91422987;fill:#646464;fill-opacity:1"
       inkscape:export-xdpi="0.64999998"
       inkscape:export-ydpi="0.64999998" />
  </g>
</svg>
